<svg  viewBox="0 0 191 190" fill="none" xmlns="http://www.w3.org/2000/svg">
<path d="M162.527 69.0004C160.027 68.5004 151.911 67.7774 145.527 65.5004C135.779 62.0238 123.027 51.5004 123.027 51.5004C123.027 51.5004 134.527 69.5004 146.527 73.0004C158.527 76.5004 161.027 75.5004 162.527 75.5004C164.027 75.5004 165.027 69.5004 162.527 69.0004Z" fill="black"/>
<path d="M122.027 115C128.255 114.838 130.329 107.727 130.527 101.5C130.735 94.9398 128.589 87.1663 122.027 87.0004C115.364 86.8319 112.81 94.8392 113.027 101.5C113.233 107.833 115.693 115.166 122.027 115Z" fill="black"/>
<path d="M69.0269 87.0004C62.4651 87.1663 60.3786 94.9382 60.5269 101.5C60.6653 107.627 62.4174 114.521 68.5269 115C74.9537 115.504 77.77 107.942 78.0269 101.5C78.2924 94.841 75.6894 86.8319 69.0269 87.0004Z" fill="black"/>
<path d="M28.5269 69.0004C30.5269 68.5004 35.0269 69.0004 45.0269 65.5004C55.0269 62.0004 67.5269 52.0004 67.5269 52.0004C67.5269 52.0004 57.1781 68.7073 45.0269 72.5004C39.5825 74.1998 31.0269 75.4911 28.5269 75.2457C26.0269 75.0004 26.5269 69.5004 28.5269 69.0004Z" fill="black"/>
<path d="M70.5269 155.5C70.5269 155.5 76.0269 148.5 94.5269 148C113.027 147.5 120.027 155.5 120.027 155.5C120.027 155.5 115.527 134 94.5269 135C73.5269 136 70.5269 155.5 70.5269 155.5Z" fill="black"/>
<path d="M95.0268 0.000340681C43.2457 0.136191 1.25645 40.7336 0.0268203 92.5003C-0.410777 110.923 4.52635 128.24 13.381 143C13.3883 143.013 13.3957 143.025 13.4031 143.037C14.8384 145.427 16.3653 147.75 18 150C18.0103 148.403 18.1481 147.005 18.6883 144.79C19.0656 143.243 19.366 140.824 20.2482 138.134C20.1548 137.976 20.3406 138.292 20.2482 138.134C19.0824 136.138 17.9942 134.092 16.9878 132C16.9078 131.834 16.8283 131.667 16.7493 131.5C11.1547 119.68 8.16549 106.428 8.52686 92.5003C9.75168 45.2927 47.804 8.27167 95.0268 8.00037C142.53 7.72745 181.295 45.0126 182.527 92.5003C183.791 141.225 143.767 181.78 95.0268 181.5C77.4916 181.4 60.6739 176.064 47.0269 167C46.9259 166.933 46.8265 166.866 46.7285 166.799C45.1389 165.705 43.9932 164.698 42.5 163.5C42.3703 163.396 42.6342 163.605 42.5 163.5C39.5 165.272 35.6642 166.122 32.1642 165.563C32.1184 165.522 32.21 165.603 32.1642 165.563C34.152 167.318 36.2061 168.986 38.331 170.572C38.5236 170.715 38.7167 170.858 38.9104 171C54.6623 182.569 74.0811 189.445 95.0268 189.5C148.186 189.64 191.789 145.644 190.527 92.5003C189.294 40.5936 146.948 -0.135877 95.0268 0.000340681Z" fill="black"/>
<path d="M16.9878 132C17.9942 134.092 19.0824 136.138 20.2482 138.134C24.5499 122.931 33.5269 107 33.5269 107C33.5269 107 48.5895 134.678 48.5269 152.5C48.5088 157.644 45.5 161 42.5 163.5C43.9932 164.698 45.1389 165.705 46.7285 166.799C50.4165 163.798 53.0049 159.113 54.0269 152.5C56.0269 139.56 33.5269 93.5004 33.5269 93.5004C33.5269 93.5004 23.3374 114.618 16.9878 132Z" fill="black"/>
<path d="M18 150C16.3653 147.75 14.8384 145.427 13.4031 143.037C12.5382 146.257 12.0269 149.005 12.0269 151C12.0269 163.941 23.0269 171 33.5269 171C35.1961 171 36.8022 170.86 38.331 170.572C36.2061 168.986 34.152 167.318 32.1642 165.563C25.0345 165.028 18.2273 160.603 18.0112 152.5C17.9475 150.112 18.2024 147.506 18.6883 144.79C18.1481 147.005 18.0103 148.403 18 150Z" fill="black"/>
</svg>
